<svg xmlns="http://www.w3.org/2000/svg" version="1.1" xmlns:xlink="http://www.w3.org/1999/xlink" xmlns:svgjs="http://svgjs.dev/svgjs" width="512" height="512"><svg width="512" height="512" version="1.1" viewBox="0 0 135.47 135.47" xmlns="http://www.w3.org/2000/svg">
 <path d="m67.733 0a67.733 67.733 0 0 0-67.733 67.733 67.733 67.733 0 0 0 67.733 67.733 67.733 67.733 0 0 0 67.733-67.733 67.733 67.733 0 0 0-67.733-67.733zm-33.763 27.897h16.326c0.7256 0 1.34 0.25272 1.848 0.76064 0.50792 0.50792 0.7648 1.1265 0.7648 1.8521v25.032c0 0.7256 0.14384 1.1613 0.43408 1.3064 0.29024 0.07281 0.65192-0.18016 1.0873-0.76064l19.592-26.012c0.43536-0.58048 1.0539-1.0552 1.8521-1.418 0.79816-0.43536 1.5955-0.6532 2.3937-0.6532h20.79c0.79816 0 1.3037 0.36576 1.5213 1.0914 0.21768 0.65304 0.1088 1.2675-0.32656 1.8479l-28.625 35.81c-0.43536 0.58048-0.6532 1.2689-0.6532 2.0671 0.0728 0.7256 0.3644 1.3442 0.8723 1.8521 2.4671 2.6848 5.0768 5.4774 7.8342 8.3798 2.7573 2.9025 5.4801 5.843 8.1649 8.8181 2.7573 2.9025 5.441 5.804 8.0533 8.7064 2.6848 2.8299 5.2246 5.4787 7.6192 7.9458 0.50792 0.58048 0.6908 1.234 0.54568 1.9596-0.14512 0.7256-0.61984 1.0873-1.418 1.0873h-22.527c-0.79816 0-1.6345-0.18288-2.5053-0.54568-0.79816-0.3628-1.4167-0.83337-1.8521-1.4139l-21.113-23.618c-0.50792-0.58048-0.94357-0.79832-1.3064-0.6532-0.29024 0.14512-0.43408 0.58072-0.43408 1.3064v22.312c0 0.7256-0.25688 1.3441-0.7648 1.8521-0.50792 0.50792-1.1223 0.76073-1.8479 0.76073h-16.326c-0.79816 0-1.4516-0.25281-1.9596-0.76073-0.43536-0.50792-0.6532-1.1264-0.6532-1.8521v-74.447c0-0.7256 0.21784-1.3442 0.6532-1.8521 0.50792-0.50792 1.1614-0.76064 1.9596-0.76064z"></path>
</svg><style>@media (prefers-color-scheme: light) { :root { filter: none; } }
@media (prefers-color-scheme: dark) { :root { filter: none; } }
</style></svg>